Coordinates
version=1
nRows=4
nColumns=60
inDegrees=yes

Units are S.I. units (second, meters, Newtons, ...)
If the header above contains a line with 'inDegrees', this indicates whether rotational values are in degrees (yes) or radians (no).

endheader
time	pelvis_tilt	pelvis_list	pelvis_rotation	pelvis_tx	pelvis_ty	pelvis_tz	hip_flexion_r	hip_adduction_r	hip_rotation_r	knee_angle_r_beta	knee_angle_r	ankle_angle_r	subtalar_angle_r	mtp_angle_r	hip_flexion_l	hip_adduction_l	hip_rotation_l	knee_angle_l_beta	knee_angle_l	ankle_angle_l	subtalar_angle_l	mtp_angle_l	L5_S1_Flex_Ext	L5_S1_Lat_Bending	L5_S1_axial_rotation	L4_L5_Flex_Ext	L4_L5_Lat_Bending	L4_L5_axial_rotation	L3_L4_Flex_Ext	L3_L4_Lat_Bending	L3_L4_axial_rotation	L2_L3_Flex_Ext	L2_L3_Lat_Bending	L2_L3_axial_rotation	L1_L2_Flex_Ext	L1_L2_Lat_Bending	L1_L2_axial_rotation	L1_T12_Flex_Ext	L1_T12_Lat_Bending	L1_T12_axial_rotation	Abs_r3	Abs_r2	Abs_r1	Abs_t1	Abs_t2	arm_flex_r	arm_add_r	arm_rot_r	elbow_flex_r	pro_sup_r	wrist_flex_r	wrist_dev_r	arm_flex_l	arm_add_l	arm_rot_l	elbow_flex_l	pro_sup_l	wrist_flex_l	wrist_dev_l
     57.03000000	      0.03495399	      8.78137747	     91.76382758	      0.40274643	      0.93785282	      0.32300264	      3.91120569	     -4.98626162	      0.88243237	      0.27517973	    -15.76663702	      7.31910437	      0.00000000	      0.00000000	      3.84094736	     -5.57501294	     -1.51677908	      0.24158747	    -13.84194260	      7.54379014	      0.00000000	      0.00000000	     -7.92663610	      0.10014104	     -0.21401617	    -14.72055591	      0.13318759	     -0.22739218	    -13.02267046	      0.24348293	     -0.22739218	     -9.05935240	      0.24348293	     -0.18726415	     -7.36067429	      0.20420762	     -0.17388814	     -4.52927987	      0.15511848	     -0.16051213	    -56.61916903	      1.13281551	     -1.19029374	      0.00000000	      0.00000000	     13.28501999	    -26.65359163	      3.26829650	     88.89386893	     72.92224486	      6.09178367	     13.24096095	     17.61104839	    -27.85232979	     12.54324078	     88.47071303	     66.33528343	      1.89408130	     10.79100749
     57.04000000	      0.07265892	      8.64956615	     91.68385463	      0.40317396	      0.93745772	      0.32562082	      4.35535662	     -4.91739223	      1.12144839	      0.27888703	    -15.97904991	      7.16303885	      0.00000000	      0.00000000	      4.25744834	     -5.62411041	     -1.38614450	      0.24516109	    -14.04669601	      7.36717068	      0.00000000	      0.00000000	     -8.04776591	      0.10316582	     -0.18955865	    -14.94550608	      0.13721054	     -0.20140606	    -13.22167462	      0.25083738	     -0.20140606	     -9.19779166	      0.25083738	     -0.16586382	     -7.47315543	      0.21037575	     -0.15401640	     -4.59849344	      0.15980386	     -0.14216898	    -57.48438714	      1.16703242	     -1.05426832	      0.00000000	      0.00000000	     14.12158976	    -26.60176425	      3.57532086	     88.16310967	     72.94667950	      6.16604453	     13.07067594	     18.52671168	    -27.94159599	     12.97069184	     87.70708389	     66.26007613	      1.86872208	     10.66268408
     57.05000000	      0.11646943	      8.39559789	     91.58107201	      0.40354726	      0.93688175	      0.32819096	      4.91264868	     -4.85432519	      1.24583026	      0.28137930	    -16.12184649	      6.99568059	      0.00000000	      0.00000000	      4.78421551	     -5.68057686	     -1.45500737	      0.24801474	    -14.21019801	      7.20960334	      0.00000000	      0.00000000	     -8.13480596	      0.10475286	     -0.16366866	    -15.10714815	      0.13932131	     -0.17389795	    -13.36467272	      0.25469611	     -0.17389795	     -9.29726973	      0.25469611	     -0.14321008	     -7.55398082	      0.21361204	     -0.13298079	     -4.64822813	      0.16226218	     -0.12275150	    -58.10610551	      1.18498534	     -0.91027599	      0.00000000	      0.00000000	     15.14694453	    -26.68469343	      4.27776817	     87.07252973	     72.99895306	      6.29300545	     12.79188132	     19.71037165	    -28.10362134	     13.91180989	     86.55381980	     66.13643480	      1.88069568	     10.46585173
     57.06000000	      0.14676499	      8.04393215	     91.49126378	      0.40389442	      0.93611320	      0.33077462	      5.56091026	     -4.81362909	      1.37873468	      0.28332031	    -16.23305811	      6.84954872	      0.00000000	      0.00000000	      5.42053806	     -5.71935280	     -1.48685622	      0.25073287	    -14.36593509	      7.07865102	      0.00000000	      0.00000000	     -8.20686632	      0.10739270	     -0.13350076	    -15.24097145	      0.14283229	     -0.14184456	    -13.48306068	      0.26111460	     -0.14184456	     -9.37962752	      0.26111460	     -0.11681317	     -7.62089607	      0.21899519	     -0.10846937	     -4.68940342	      0.16635129	     -0.10012557	    -58.62082546	      1.21484765	     -0.74249119	      0.00000000	      0.00000000	     16.17243485	    -26.80707530	      4.99484887	     85.97273808	     73.06308311	      6.46510379	     12.27665596	     20.99460490	    -28.27783376	     14.96442735	     85.28907956	     65.91056175	      1.93491793	     10.10635840
